<?xml version="1.0" encoding="UTF-8"?>
<!DOCTYPE svg PUBLIC "-//W3C//DTD SVG 1.1//EN" "http://www.w3.org/Graphics/SVG/1.1/DTD/svg11.dtd">
<svg version="1.1" xmlns="http://www.w3.org/2000/svg" xmlns:xlink="http://www.w3.org/1999/xlink" x="0" y="0" width="193.083" height="198.665" viewBox="0, 0, 193.083, 198.665">
  <g id="Layer_1" transform="translate(-208.917, -262.599)">
    <path d="M259.628,300.975 C216.961,276.647 214.107,283.961 211.255,299.977 C208.402,315.992 208.847,339.975 225.483,345.791 C242.119,351.606 272.41,308.263 259.628,300.975 z" fill="#DD7B94"/>
    <path d="M317.484,461.264 C276.426,461.264 225.403,434.407 220.178,393.958 C213.267,340.458 262.01,290.41 303.069,290.41 C344.127,290.41 402,333.314 402,374.111 C402,414.909 369.153,461.264 317.484,461.264 z" fill="#FFB0AE"/>
    <path d="M300.402,373.671 L321.486,373.671 C328.113,373.671 333.486,379.043 333.486,385.671 L333.486,391.722 C333.486,398.349 328.113,403.722 321.486,403.722 L300.402,403.722 C293.774,403.722 288.402,398.349 288.402,391.722 L288.402,385.671 C288.402,379.043 293.774,373.671 300.402,373.671 z" fill="#E5837A"/>
    <path d="M258.628,303.129 C215.961,278.801 213.107,286.116 210.255,302.131 C207.402,318.146 207.847,342.13 224.483,347.945 C241.119,353.76 271.41,310.418 258.628,303.129 z" fill="#E0919F" fill-opacity="0.804"/>
    <path d="M247.978,352.48 L275.414,331.623" fill-opacity="0" stroke="#1A1A1A" stroke-width="1"/>
    <g>
      <path d="M331.986,331.149 L363.08,351.98" fill="#000000"/>
      <path d="M332.486,331.649 L363.58,352.48" fill-opacity="0" stroke="#1A1A1A" stroke-width="1"/>
    </g>
    <g>
      <path d="M273.204,367.73 C270.174,367.73 267.717,364.205 267.717,359.855 C267.717,355.506 270.174,351.98 273.204,351.98 C276.235,351.98 278.692,355.506 278.692,359.855 C278.692,364.205 276.235,367.73 273.204,367.73 z" fill="#000000"/>
      <path d="M273.704,368.23 C270.674,368.23 268.217,364.705 268.217,360.355 C268.217,356.006 270.674,352.48 273.704,352.48 C276.735,352.48 279.192,356.006 279.192,360.355 C279.192,364.705 276.735,368.23 273.704,368.23 z" fill-opacity="0" stroke="#1A1A1A" stroke-width="1"/>
    </g>
    <g>
      <path d="M335.794,367.73 C332.763,367.73 330.306,364.205 330.306,359.855 C330.306,355.506 332.763,351.98 335.794,351.98 C338.824,351.98 341.281,355.506 341.281,359.855 C341.281,364.205 338.824,367.73 335.794,367.73 z" fill="#000000"/>
      <path d="M336.294,368.23 C333.263,368.23 330.806,364.705 330.806,360.355 C330.806,356.006 333.263,352.48 336.294,352.48 C339.324,352.48 341.781,356.006 341.781,360.355 C341.781,364.705 339.324,368.23 336.294,368.23 z" fill-opacity="0" stroke="#1A1A1A" stroke-width="1"/>
    </g>
    <g>
      <path d="M299.598,390.568 C298.523,390.568 297.652,389.954 297.652,389.196 C297.652,388.439 298.523,387.825 299.598,387.825 C300.673,387.825 301.544,388.439 301.544,389.196 C301.544,389.954 300.673,390.568 299.598,390.568 z" fill="#000000"/>
      <path d="M300.098,391.068 C299.023,391.068 298.152,390.454 298.152,389.696 C298.152,388.939 299.023,388.325 300.098,388.325 C301.173,388.325 302.044,388.939 302.044,389.696 C302.044,390.454 301.173,391.068 300.098,391.068 z" fill-opacity="0" stroke="#000000" stroke-width="1"/>
    </g>
    <path d="M295.665,373.671 L316.749,373.671 C323.377,373.671 328.749,379.043 328.749,385.671 L328.749,391.722 C328.749,398.349 323.377,403.722 316.749,403.722 L295.665,403.722 C289.038,403.722 283.665,398.349 283.665,391.722 L283.665,385.671 C283.665,379.043 289.038,373.671 295.665,373.671 z" fill="#DC7288"/>
    <path d="M253.734,311.352 C220.02,291.435 217.765,297.424 215.511,310.535 C213.257,323.646 213.608,343.281 226.754,348.042 C239.899,352.803 263.834,317.319 253.734,311.352 z" fill="#DA5479" fill-opacity="0.601"/>
    <path d="M342.827,296.792 C379.208,263.795 383.579,270.317 389.835,285.334 C396.09,300.35 400.854,323.86 385.873,333.143 C370.893,342.425 331.929,306.677 342.827,296.792 z" fill="#DD7B94"/>
    <path d="M345.563,298.951 C381.944,265.954 386.315,272.477 392.571,287.493 C398.826,302.51 403.589,326.02 388.609,335.302 C373.629,344.585 334.665,308.837 345.563,298.951 z" fill="#DE919F" fill-opacity="0.725"/>
    <path d="M350.83,305.645 C379.427,278.895 382.926,284.252 387.968,296.564 C393.01,308.875 396.922,328.119 385.121,335.616 C373.32,343.113 342.263,313.659 350.83,305.645 z" fill="#D65579" fill-opacity="0.601"/>
    <path d="M296.736,376.516 L314.893,376.516 C320.6,376.516 325.227,381.229 325.227,387.043 L325.227,392.35 C325.227,398.164 320.6,402.876 314.893,402.876 L296.736,402.876 C291.028,402.876 286.402,398.164 286.402,392.35 L286.402,387.043 C286.402,381.229 291.028,376.516 296.736,376.516 z" fill="#D34976"/>
    <path d="M355.393,425.465 C300.09,430.046 284.729,404.877 262.192,421.304" fill-opacity="0" stroke="#000000" stroke-width="1"/>
    <path d="M300.559,391.81 C299.144,391.81 297.998,390.863 297.998,389.696 C297.998,388.529 299.144,387.583 300.559,387.583 C301.973,387.583 303.12,388.529 303.12,389.696 C303.12,390.863 301.973,391.81 300.559,391.81 z" fill="#570827"/>
    <path d="M311.856,391.81 C310.441,391.81 309.295,390.863 309.295,389.696 C309.295,388.529 310.441,387.583 311.856,387.583 C313.27,387.583 314.417,388.529 314.417,389.696 C314.417,390.863 313.27,391.81 311.856,391.81 z" fill="#570827"/>
    <g>
      <path d="M234.785,372.109 C234.785,372.109 230.24,354.998 244.273,344.179 C259.798,332.209 302.407,336.965 302.062,344.179 C300.993,366.527 278.276,387.494 255.917,388.068 C233.558,388.643 234.785,372.109 234.785,372.109 z" fill="#383838"/>
      <path d="M234.785,372.109 C234.785,372.109 230.24,354.998 244.273,344.179 C259.798,332.209 302.407,336.965 302.062,344.179 C300.993,366.527 278.276,387.494 255.917,388.068 C233.558,388.643 234.785,372.109 234.785,372.109 z" fill-opacity="0" stroke="#000000" stroke-width="1"/>
    </g>
    <g>
      <path d="M378.284,371.563 C378.284,371.563 382.389,354.998 368.356,344.179 C352.831,332.209 310.222,336.965 310.567,344.179 C311.636,366.527 334.353,387.494 356.712,388.068 C379.071,388.643 378.284,371.563 378.284,371.563 z" fill="#383838"/>
      <path d="M378.284,371.563 C378.284,371.563 382.389,354.998 368.356,344.179 C352.831,332.209 310.222,336.965 310.567,344.179 C311.636,366.527 334.353,387.494 356.712,388.068 C379.071,388.643 378.284,371.563 378.284,371.563 z" fill-opacity="0" stroke="#000000" stroke-width="1"/>
    </g>
    <path d="M298.498,353.826 C304.104,346.644 308.749,348.24 314.453,353.427" fill-opacity="0" stroke="#000000" stroke-width="1"/>
    <path d="M284.165,336.878 L328.185,336.953" fill-opacity="0" stroke="#000000" stroke-width="1"/>
    <g>
      <path d="M262.626,288.18 L341.758,289.384 C348.222,289.384 341.758,292.345 341.758,301.426 L345.496,309.856 C345.496,318.937 314.232,329.123 307.768,329.123 L286.352,329.123 C279.887,329.123 257.334,322.55 257.334,313.468 L262.596,303.835 C262.596,294.753 256.161,288.18 262.626,288.18 z" fill="#000000"/>
      <path d="M259.253,293.283 L345.162,293.283 L345.162,301.569 L259.253,301.569 L259.253,293.283 z" fill="#003268"/>
      <path d="M268.92,262.599 L336.977,262.599 C343.411,262.599 354.576,270.507 351.172,275.589 C344.024,286.259 346.969,293.283 340.535,293.283 L259.783,293.283 L249.315,278.638 C249.315,272.65 262.485,262.599 268.92,262.599 z" fill="#00102C"/>
      <path d="M343.455,309.473 L343.259,309.67 L342.864,310.039 L342.433,310.413 L341.956,310.802 L341.436,311.204 L340.876,311.616 L340.28,312.038 L339.65,312.467 L338.642,313.125 L337.209,314.012 L335.698,314.898 L334.123,315.779 L332.508,316.649 L330.871,317.511 L329.236,318.338 L327.622,319.122 L326.053,319.852 L324.923,320.357 L324.197,320.671 L323.49,320.968 L322.809,321.246 L322.158,321.502 L321.54,321.735 L321.253,321.84 L321.253,321.84 C320.341,322.203 319.416,323.201 319.187,324.068 C318.957,324.935 319.51,325.343 320.422,324.98 L320.765,324.833 L321.454,324.528 L322.17,324.2 L322.911,323.851 L323.674,323.481 L324.463,323.089 L325.674,322.469 L327.332,321.59 L329.028,320.656 L330.741,319.677 L332.452,318.663 L334.142,317.609 L335.788,316.536 L337.371,315.46 L338.865,314.394 L339.917,313.606 L340.586,313.084 L341.223,312.569 L341.827,312.061 L342.395,311.56 L342.925,311.068 L343.414,310.584 L343.849,310.121 L344.032,309.913 C344.032,309.913 344.032,309.913 344.032,309.913 C344.304,309.623 344.395,309.289 344.235,309.167 C344.076,309.046 343.726,309.183 343.455,309.473 L343.455,309.473" fill="#F4F4F4"/>
      <path d="M265.792,304.914 L265.415,305.327 L264.708,306.142 L264.069,306.936 L263.498,307.708 L262.993,308.458 L262.559,309.184 L262.188,309.887 L261.878,310.565 L261.629,311.219 L261.436,311.848 L261.299,312.452 L261.214,313.03 L261.179,313.582 L261.191,314.11 L261.247,314.612 L261.343,315.09 L261.477,315.545 L261.646,315.977 L261.847,316.387 L262.078,316.775 L262.334,317.143 L262.615,317.491 L263.075,317.971 L263.748,318.549 L264.468,319.061 L265.213,319.509 L265.963,319.899 L266.336,320.074 L266.336,320.074 C266.519,320.157 266.862,319.988 267.102,319.698 C267.343,319.407 267.389,319.105 267.207,319.022 C267.207,319.022 267.207,319.022 267.207,319.022 L266.84,318.863 L266.093,318.504 L265.353,318.09 L264.638,317.617 L263.97,317.079 L263.511,316.631 L263.23,316.314 L262.971,315.979 L262.738,315.627 L262.533,315.255 L262.359,314.865 L262.217,314.456 L262.11,314.027 L262.04,313.578 L262.01,313.108 L262.021,312.618 L262.076,312.105 L262.177,311.569 L262.328,311.009 L262.53,310.423 L262.787,309.809 L263.102,309.167 L263.478,308.495 L263.914,307.79 L264.419,307.052 L264.996,306.279 L265.651,305.468 L266.012,305.046 C266.102,304.943 266.127,304.83 266.066,304.794 C266.006,304.757 265.883,304.811 265.792,304.914 L265.792,304.914" fill="#F4F4F4"/>
      <g>
        <path d="M302.317,267.256 C302.317,267.256 300.676,274.027 293.383,271.831 C292.386,271.531 299.097,289.659 302.619,289.626 C306.141,289.593 312.768,271.496 311.31,271.831 C304.739,273.339 302.317,267.256 302.317,267.256 z" fill="#FFCB00"/>
        <path d="M302.317,267.256 C302.317,267.256 300.676,274.027 293.383,271.831 C292.386,271.531 299.097,289.659 302.619,289.626 C306.141,289.593 312.768,271.496 311.31,271.831 C304.739,273.339 302.317,267.256 302.317,267.256 z" fill-opacity="0" stroke="#FFCB00" stroke-width="1"/>
      </g>
    </g>
  </g>
</svg>
